<?xml version="1.0" standalone="no"?>
<!DOCTYPE svg PUBLIC "-//W3C//DTD SVG 20010904//EN"
 "http://www.w3.org/TR/2001/REC-SVG-20010904/DTD/svg10.dtd">
<svg version="1.0" xmlns="http://www.w3.org/2000/svg"
 width="25pt" height="32pt" viewBox="0 0 1280.000000 1275.000000"
 preserveAspectRatio="xMidYMid meet">
<metadata>
Created by potrace 1.15, written by Peter Selinger 2001-2017
</metadata>
<g transform="translate(0.000000,1275.000000) scale(0.100000,-0.100000)"
fill="#f44336" stroke="none">
<path d="M6110 12744 c-596 -38 -982 -101 -1470 -239 -1731 -489 -3191 -1708
-3990 -3330 -344 -698 -548 -1432 -627 -2250 -31 -331 -23 -928 18 -1275 142
-1207 609 -2323 1367 -3265 203 -253 555 -617 792 -821 979 -840 2132 -1354
3395 -1513 303 -38 442 -46 815 -45 391 0 565 12 900 60 1108 157 2152 601
3037 1291 420 327 847 761 1171 1191 684 906 1107 1964 1241 3102 41 347 49
944 18 1275 -21 214 -58 479 -93 660 -371 1922 -1618 3572 -3379 4470 -728
371 -1499 592 -2340 670 -158 15 -727 28 -855 19z m523 -2039 c731 -27 1532
-304 2162 -747 160 -112 329 -249 319 -257 -9 -8 -2869 -2091 -5476 -3989
-659 -480 -1202 -872 -1206 -872 -18 0 -133 381 -181 600 -230 1045 -58 2185
472 3110 300 525 716 995 1192 1345 591 434 1263 702 1990 790 139 17 444 33
535 29 30 -2 117 -6 193 -9z m3775 -2892 c282 -801 317 -1705 97 -2558 -123
-476 -330 -935 -607 -1345 -251 -371 -574 -716 -933 -995 -962 -750 -2225
-1044 -3415 -794 -527 110 -1011 314 -1465 615 -154 102 -360 259 -360 274 0
8 6642 4858 6656 4859 4 1 15 -25 27 -56z"/>
</g>
</svg>
