<!-- <svg width="31" height="33" viewBox="0 0 31 33" fill="none" xmlns="http://www.w3.org/2000/svg">
<g clip-path="url(#clip0)">
<path d="M16.0935 0.0360947C15.6865 0.108284 15.0726 0.332581 14.5164 0.611015C12.729 1.51078 11.508 2.93391 11.1213 4.57617C11.0501 4.86492 11.0399 4.99383 11.0433 5.51719C11.0433 6.09211 11.0705 6.33187 11.1824 6.67734C11.2027 6.73664 11.1993 6.73664 11.0705 6.65414C10.2972 6.15656 9.64256 5.80336 8.97101 5.52234C7.95689 5.09438 6.76302 4.81336 5.81674 4.77727C4.08359 4.71281 2.31652 5.51719 1.56017 6.71602C1.21422 7.26773 1.11247 7.81945 1.25832 8.36086C1.5093 9.30703 2.51663 10.2429 4.13786 11.0395C5.37921 11.6505 6.936 12.0166 8.61488 12.0888L9.03884 12.1069L8.78446 12.1945C8.26893 12.3698 7.48545 12.6844 7.16324 12.8468C5.51149 13.6692 4.37527 15.1181 4.16838 16.6727C4.07681 17.3353 4.25317 18.1706 4.58556 18.6785C5.71499 20.3981 8.94048 21.1355 11.3316 20.2254C13.1733 19.5216 14.7911 18.0649 15.5373 16.4407L15.6289 16.237L15.656 16.4149C15.6832 16.6186 15.6526 17.6782 15.6017 18.1784C15.4898 19.2792 15.327 19.9856 14.6724 22.1977C14.2688 23.5615 14.0857 24.3891 13.95 25.4719C13.9025 25.8586 13.8889 26.2041 13.8923 27.2895C13.8923 28.6791 13.9093 28.9755 14.0755 30.1898C14.1094 30.4528 14.1501 30.7364 14.1603 30.8215C14.1806 30.9968 14.1976 31.02 13.9568 30.5121C12.0981 26.5624 8.98457 23.9147 4.91455 22.819C3.52396 22.4452 1.83151 22.2234 0.366302 22.2234H0V22.6024C0 24.5515 0.698687 26.1757 2.12319 27.5344C2.63534 28.0242 3.59179 28.6971 4.4058 29.1431C5.86422 29.9449 7.30569 30.4941 10.9043 31.6207C12.6883 32.1802 13.2377 32.3606 13.9364 32.6159L14.4893 32.8195L14.4689 32.9098L14.4452 33.0026L14.5741 32.951C14.6894 32.9072 14.7165 32.9072 14.7877 32.9381C14.9098 32.9871 14.9234 32.9819 14.9031 32.902C14.8827 32.8298 14.8861 32.8298 16.6396 32.175C18.505 31.4763 19.5158 31.0793 20.2314 30.7622C22.9142 29.5762 24.549 28.3929 25.5021 26.9491C25.9396 26.2814 26.1906 25.6523 26.3432 24.8273C26.4144 24.4303 26.4246 23.3836 26.3602 22.9582C26.2856 22.4761 26.0956 21.6846 25.9939 21.4165C25.9701 21.3572 25.9328 21.3598 25.2409 21.4655C22.2596 21.9192 20.1263 22.6746 18.5729 23.8219C17.2264 24.817 16.3954 25.9798 15.8086 27.6891C15.6051 28.282 15.4593 28.8492 15.1405 30.2904C14.9845 31.0071 14.8488 31.5949 14.8454 31.6001C14.8081 31.6284 14.7911 30.0197 14.8217 29.1457C14.9065 26.5856 15.1676 24.6546 15.7679 22.1719C16.3445 19.7897 16.409 19.4906 16.5039 18.743C16.6023 17.9412 16.5345 16.7552 16.3547 16.1442C16.3344 16.0849 16.3242 16.0359 16.331 16.0359C16.3377 16.0359 16.4666 16.17 16.6226 16.3376C17.05 16.7939 17.4672 17.1703 17.9895 17.5777C19.1868 18.5058 20.3094 19.0395 21.5982 19.2895C21.9917 19.3669 22.0731 19.372 22.5547 19.3746C22.86 19.3746 23.1652 19.3591 23.2839 19.3411C24.0165 19.2199 24.7356 18.9466 25.3189 18.5651C26.4857 17.802 27.337 16.4587 27.337 15.3914C27.337 14.1694 26.2957 12.9912 24.2811 11.9316L23.9758 11.7691L24.2573 11.7279C24.5558 11.6815 25.3562 11.5191 26.2075 11.3283C27.8695 10.9596 29.0091 10.5239 29.8434 9.93609C30.5998 9.40758 31.061 8.52328 30.9864 7.74727C30.9152 6.99445 30.4845 6.40922 29.5924 5.85234C28.8056 5.3625 27.917 5.06086 26.7604 4.8907C26.4144 4.84172 26.2618 4.83398 25.4207 4.83398C24.5897 4.83398 24.4167 4.84172 24.0335 4.89328C22.531 5.0918 21.276 5.48883 20.2111 6.10242C20.0075 6.22102 19.8414 6.31125 19.8414 6.30867C19.8414 6.3061 19.8922 6.20813 19.9567 6.09469C20.2212 5.61773 20.4688 4.92422 20.557 4.42149C20.6248 4.02703 20.54 3.42891 20.3467 2.93133C20.15 2.42602 19.7464 1.83305 19.3055 1.39477C18.8849 0.974533 18.1659 0.464066 17.6876 0.244923C17.2433 0.0438309 16.565 -0.0464058 16.0935 0.0360947Z" fill="black"/>
</g>
<defs>
<clipPath id="clip0">
<rect width="31" height="33" fill="white"/>
</clipPath>
</defs>
</svg> -->
<svg width="33" height="37" viewBox="0 0 33 37" fill="none" xmlns="http://www.w3.org/2000/svg">
<mask id="path-1-inside-1" fill="white">
<path d="M28.5848 8.54776C28.3127 8.47983 28.0409 8.43462 27.7704 8.40327C29.9229 6.69095 31.4289 4.46923 29.8461 2.29976C27.3991 -1.05337 24.3098 0.939617 22.233 3.84905C22.2053 2.83427 21.8685 1.88401 21.0351 1.12861C19.2365 -0.501681 16.4702 -0.161942 14.4837 0.863847C12.9913 1.63453 11.7759 3.09863 11.7258 4.91586C11.7133 5.36612 11.7756 5.79715 11.8919 6.21044C9.15228 4.37311 5.76242 3.62895 4.90837 7.3181C4.28856 9.99571 7.00114 11.4498 9.81355 12.0932C9.25773 12.1946 8.71029 12.3312 8.18074 12.5227C7.15927 12.8921 6.13339 13.4763 5.55482 14.48C5.07616 15.3098 5.07997 16.3083 5.49173 17.1625C5.87977 17.9677 6.65022 18.5039 7.43752 18.7875C8.78206 19.272 10.1744 18.9307 11.3655 18.1939C9.7215 19.8517 8.49513 21.8174 7.75543 24.2252C7.74099 24.2715 7.72976 24.3201 7.71569 24.3672C5.89256 22.8213 3.66269 22.088 1.21938 22.2625C0.976536 22.2798 0.782706 22.3734 0.634152 22.5102C0.229429 22.6919 -0.0877344 23.1212 0.0219032 23.7026C0.760105 27.6134 3.47178 29.6188 6.99785 29.2203C6.88387 31.5485 6.99238 33.9452 7.06745 35.9883C7.11684 37.3349 9.09698 37.3396 9.04751 35.9883C8.81394 29.6276 8.84664 22.6191 14.0412 18.5174C14.3029 18.843 14.6005 19.1181 14.9208 19.3512C13.6 21.2014 12.7575 23.6427 13.5537 25.9066C13.8514 26.7525 14.3631 27.6294 15.1617 28.0334C16.0209 28.4676 17.0145 28.3486 17.675 27.5796C18.2565 26.9021 18.4989 26.0063 18.609 25.1105C19.0184 25.6887 19.5686 26.165 20.3063 26.4795C22.1041 27.2458 24.3125 26.2089 25.2827 24.528C25.5419 24.0793 25.6908 23.6 25.7493 23.112C27.4815 24.208 29.3087 24.3953 30.5586 22.3581C32.0642 19.9044 30.3674 17.983 28.0914 16.6698C28.8978 16.7055 29.7264 16.5889 30.5783 16.2621C32.2614 15.6166 33.4403 13.9957 32.8425 12.0724C32.2475 10.1588 30.3352 8.98425 28.5848 8.54776ZM7.17649 27.1264C4.7105 27.5984 2.99738 26.5402 2.20822 24.3108C4.16284 24.3964 5.8297 25.1817 7.22887 26.6785C7.20799 26.8257 7.19467 26.9776 7.17649 27.1264ZM28.2903 3.56782C29.7417 5.55638 23.6836 8.65188 22.0367 9.23793C22.0063 9.20856 21.9782 9.17435 21.947 9.14648C22.5207 6.7235 25.8741 0.256972 28.2903 3.56782ZM12.2688 14.4581C12.2198 14.5335 12.1692 14.608 12.1181 14.682C12.1054 14.7004 12.0828 14.7323 12.0602 14.764C11.2515 15.8499 10.1565 16.8492 8.77884 16.8567C7.34689 16.8645 6.67672 15.4885 8.07372 14.6368C9.19097 13.9559 10.8102 14.015 12.0621 13.9595C12.2349 13.9517 12.4077 13.9533 12.5808 13.9501C12.4808 14.1217 12.3769 14.2914 12.2688 14.4581ZM6.83822 8.02054C6.61647 7.29743 7.48961 6.82603 8.01198 6.80093C8.82255 6.7619 9.65579 7.23734 10.3413 7.63416C11.4698 8.28664 12.7143 9.26706 13.4311 10.4655C11.4155 10.5426 7.40938 9.88534 6.83822 8.02054ZM14.6231 7.04795C14.3765 6.75691 14.3639 6.74384 14.1258 6.33538C12.1734 2.99159 18.6471 0.135201 20.1061 3.26411C20.1407 3.36862 20.1733 3.47416 20.1973 3.58152C20.2117 3.64526 20.2197 3.67503 20.2254 3.69308C20.225 3.71279 20.2258 3.74613 20.2303 3.81794C20.2402 3.95903 20.2382 4.10099 20.2334 4.24224C20.2311 4.31721 20.225 4.39203 20.2186 4.46701C20.217 4.48689 20.2163 4.49837 20.2159 4.5062C20.2129 4.52505 20.2091 4.54817 20.2037 4.58237C20.1376 5.00231 20.0194 5.41181 19.8826 5.81124C19.6572 6.47085 19.2305 7.29118 18.7809 8.04627C17.9836 8.08087 17.1723 8.3024 16.408 8.69519C15.7637 8.21349 15.1722 7.69687 14.6231 7.04795ZM16.6638 24.7966C16.6626 24.809 16.6611 24.8247 16.6591 24.8415C16.653 24.885 16.6467 24.9292 16.6393 24.9727C16.6171 25.1085 16.5899 25.2432 16.5579 25.3771C16.5315 25.488 16.5004 25.5982 16.4652 25.7063C16.4551 25.7376 16.4439 25.7686 16.4329 25.7996C16.3976 25.8792 16.3582 25.9572 16.3151 26.032C16.3039 26.0517 16.2909 26.0706 16.2788 26.0899C16.2489 26.1257 16.2178 26.1607 16.1844 26.1937C16.184 26.1941 16.1836 26.1945 16.1832 26.1945C16.1815 26.1961 16.1796 26.1969 16.1777 26.1977C16.1699 26.2001 16.1618 26.2022 16.154 26.2041C16.131 26.1981 16.1084 26.1904 16.0859 26.1828C16.0782 26.1779 16.07 26.1744 16.0622 26.1699C16.0241 26.1475 15.9887 26.1205 15.9524 26.0943C15.9375 26.0802 15.922 26.0665 15.9077 26.0517C15.8535 25.9982 15.803 25.9408 15.754 25.8817C15.7484 25.8752 15.7433 25.868 15.7384 25.8616C15.6383 25.7109 15.5524 25.55 15.4777 25.384C15.4741 25.3768 15.4715 25.3688 15.4679 25.3615C15.4663 25.3574 15.4644 25.3527 15.4633 25.3487C15.427 25.2477 15.3956 25.1448 15.3671 25.0411C15.34 24.9413 15.317 24.84 15.2963 24.7392C15.2862 24.6897 15.2776 24.6398 15.2695 24.59C15.2308 24.2386 15.2293 23.8831 15.2606 23.5314C15.2621 23.5112 15.2644 23.4911 15.2668 23.471C15.2814 23.3721 15.2987 23.2732 15.3181 23.1752C15.3624 22.9512 15.4209 22.7309 15.4886 22.5134C15.5209 22.4105 15.5558 22.3092 15.5929 22.2079C15.5971 22.1954 15.603 22.1798 15.6093 22.1636C15.6208 22.1359 15.6326 22.1073 15.6446 22.08C15.7427 21.852 15.854 21.6304 15.9732 21.4146C16.1012 21.1818 16.2424 20.9571 16.3906 20.7384C16.3969 20.7295 16.4036 20.7203 16.4102 20.711C16.4463 20.9176 16.483 21.124 16.5149 21.3314C16.5335 21.4532 16.551 21.5754 16.5677 21.6981C16.5717 21.7266 16.5755 21.7552 16.5789 21.7837C16.5814 21.8014 16.5833 21.819 16.5848 21.8315C16.6137 22.0707 16.6374 22.3108 16.6576 22.5512C16.7194 23.2969 16.7372 24.0507 16.6638 24.7966ZM17.8612 18.1173C16.4458 18.2969 15.5532 17.4515 15.1633 16.2588C15.0593 15.9414 14.9914 15.5997 14.9583 15.246C14.7811 13.3477 15.6995 11.3428 17.3437 10.413C19.3845 9.25915 21.5237 11.0298 21.7133 13.1781C21.9211 15.5425 20.1285 17.8294 17.8612 18.1173ZM23.8079 22.7955C23.8075 22.8015 23.8075 22.802 23.8075 22.8068C23.8041 22.8233 23.8006 22.8362 23.7957 22.8627C23.7771 22.9592 23.7512 23.0537 23.7232 23.1474C23.7132 23.1791 23.7023 23.2097 23.6912 23.2407C23.6878 23.2475 23.687 23.2495 23.6828 23.2576C23.6434 23.3452 23.597 23.4297 23.5491 23.5125C23.5313 23.5439 23.4867 23.6098 23.4548 23.6576C23.3466 23.7944 23.2291 23.9226 23.1025 24.0404C23.0843 24.0573 23.076 24.0657 23.0645 24.0766C23.0577 24.0815 23.055 24.083 23.0463 24.0903C22.9699 24.1481 22.8909 24.2012 22.8104 24.2523C22.7298 24.3037 22.6465 24.3499 22.5625 24.3946C22.5362 24.4079 22.523 24.416 22.5085 24.424C22.4933 24.4296 22.4792 24.4348 22.4531 24.4449C22.2771 24.5141 22.0951 24.5644 21.9112 24.6025C21.8971 24.6053 21.8925 24.6066 21.8812 24.6089C21.8709 24.6097 21.866 24.6097 21.8504 24.6113C21.7421 24.6218 21.6338 24.6237 21.5246 24.6222C21.4714 24.6214 21.4183 24.6145 21.3651 24.6102C21.3104 24.6013 21.2283 24.5881 21.1891 24.5784C21.0978 24.5564 21.0086 24.5266 20.92 24.4948C20.9154 24.4931 20.9105 24.4911 20.9056 24.4896C20.8733 24.4735 20.841 24.4579 20.8094 24.4409C20.7376 24.4024 20.6688 24.3577 20.6012 24.3123C20.5773 24.2962 20.5617 24.2857 20.5476 24.2769C20.4211 24.1667 20.3063 24.0425 20.1992 23.9111C20.1832 23.8873 20.1664 23.864 20.1508 23.8395C20.0961 23.7555 20.0471 23.6679 19.9996 23.579C19.9502 23.4873 19.9065 23.3921 19.8647 23.2964C19.8642 23.2952 19.8642 23.2952 19.8635 23.2936C19.8391 23.2285 19.8175 23.1622 19.7958 23.0958C19.7187 22.8566 19.6628 22.6097 19.6168 22.362C19.6073 22.3085 19.5982 22.2551 19.5902 22.2016C19.5868 22.1791 19.5845 22.1695 19.5823 22.1566C19.5819 22.1517 19.5819 22.151 19.5811 22.145C19.5607 21.9665 19.5488 21.7864 19.5401 21.6066C19.5112 21.0499 19.5454 20.3716 19.5997 19.8473C19.9243 19.717 20.2424 19.5594 20.5464 19.3604C20.6433 19.2969 20.7333 19.2217 20.8264 19.1521C21.0978 19.3054 21.3657 19.4641 21.6271 19.6366C21.7913 19.7447 21.9513 19.8601 22.1097 19.978C22.1694 20.0226 22.2271 20.0685 22.2857 20.1147C22.2466 20.0857 22.4461 20.2518 22.4692 20.2727C22.709 20.485 22.9325 20.7165 23.1404 20.9626C23.1864 21.0172 23.2301 21.0735 23.2742 21.1298C23.2791 21.1375 23.281 21.1408 23.2889 21.1515C23.3768 21.279 23.4561 21.4129 23.531 21.5491C23.5721 21.6243 23.6066 21.7039 23.6427 21.7823C23.661 21.8346 23.7149 21.9741 23.729 22.0219C23.7601 22.1268 23.7829 22.2342 23.8035 22.3419C23.8073 22.3914 23.8114 22.4412 23.8133 22.4907C23.8182 22.5913 23.8144 22.6938 23.8079 22.7955ZM29.1032 20.8094C28.4347 24.0808 23.5924 18.3119 22.9742 16.8925C24.0919 17.1655 25.1916 17.5693 26.234 18.06C27.0913 18.4635 29.3718 19.4944 29.1032 20.8094ZM29.5478 14.4211C27.3607 15.1361 25.323 13.7863 23.6175 12.4354C23.5825 12.1901 23.5313 11.9475 23.4655 11.7085C25.7171 10.1749 29.3962 9.69643 30.8953 12.5492C31.4414 13.5883 30.3219 14.1678 29.5478 14.4211Z"/>
</mask>
<path d="M28.5848 8.54776C28.3127 8.47983 28.0409 8.43462 27.7704 8.40327C29.9229 6.69095 31.4289 4.46923 29.8461 2.29976C27.3991 -1.05337 24.3098 0.939617 22.233 3.84905C22.2053 2.83427 21.8685 1.88401 21.0351 1.12861C19.2365 -0.501681 16.4702 -0.161942 14.4837 0.863847C12.9913 1.63453 11.7759 3.09863 11.7258 4.91586C11.7133 5.36612 11.7756 5.79715 11.8919 6.21044C9.15228 4.37311 5.76242 3.62895 4.90837 7.3181C4.28856 9.99571 7.00114 11.4498 9.81355 12.0932C9.25773 12.1946 8.71029 12.3312 8.18074 12.5227C7.15927 12.8921 6.13339 13.4763 5.55482 14.48C5.07616 15.3098 5.07997 16.3083 5.49173 17.1625C5.87977 17.9677 6.65022 18.5039 7.43752 18.7875C8.78206 19.272 10.1744 18.9307 11.3655 18.1939C9.7215 19.8517 8.49513 21.8174 7.75543 24.2252C7.74099 24.2715 7.72976 24.3201 7.71569 24.3672C5.89256 22.8213 3.66269 22.088 1.21938 22.2625C0.976536 22.2798 0.782706 22.3734 0.634152 22.5102C0.229429 22.6919 -0.0877344 23.1212 0.0219032 23.7026C0.760105 27.6134 3.47178 29.6188 6.99785 29.2203C6.88387 31.5485 6.99238 33.9452 7.06745 35.9883C7.11684 37.3349 9.09698 37.3396 9.04751 35.9883C8.81394 29.6276 8.84664 22.6191 14.0412 18.5174C14.3029 18.843 14.6005 19.1181 14.9208 19.3512C13.6 21.2014 12.7575 23.6427 13.5537 25.9066C13.8514 26.7525 14.3631 27.6294 15.1617 28.0334C16.0209 28.4676 17.0145 28.3486 17.675 27.5796C18.2565 26.9021 18.4989 26.0063 18.609 25.1105C19.0184 25.6887 19.5686 26.165 20.3063 26.4795C22.1041 27.2458 24.3125 26.2089 25.2827 24.528C25.5419 24.0793 25.6908 23.6 25.7493 23.112C27.4815 24.208 29.3087 24.3953 30.5586 22.3581C32.0642 19.9044 30.3674 17.983 28.0914 16.6698C28.8978 16.7055 29.7264 16.5889 30.5783 16.2621C32.2614 15.6166 33.4403 13.9957 32.8425 12.0724C32.2475 10.1588 30.3352 8.98425 28.5848 8.54776ZM7.17649 27.1264C4.7105 27.5984 2.99738 26.5402 2.20822 24.3108C4.16284 24.3964 5.8297 25.1817 7.22887 26.6785C7.20799 26.8257 7.19467 26.9776 7.17649 27.1264ZM28.2903 3.56782C29.7417 5.55638 23.6836 8.65188 22.0367 9.23793C22.0063 9.20856 21.9782 9.17435 21.947 9.14648C22.5207 6.7235 25.8741 0.256972 28.2903 3.56782ZM12.2688 14.4581C12.2198 14.5335 12.1692 14.608 12.1181 14.682C12.1054 14.7004 12.0828 14.7323 12.0602 14.764C11.2515 15.8499 10.1565 16.8492 8.77884 16.8567C7.34689 16.8645 6.67672 15.4885 8.07372 14.6368C9.19097 13.9559 10.8102 14.015 12.0621 13.9595C12.2349 13.9517 12.4077 13.9533 12.5808 13.9501C12.4808 14.1217 12.3769 14.2914 12.2688 14.4581ZM6.83822 8.02054C6.61647 7.29743 7.48961 6.82603 8.01198 6.80093C8.82255 6.7619 9.65579 7.23734 10.3413 7.63416C11.4698 8.28664 12.7143 9.26706 13.4311 10.4655C11.4155 10.5426 7.40938 9.88534 6.83822 8.02054ZM14.6231 7.04795C14.3765 6.75691 14.3639 6.74384 14.1258 6.33538C12.1734 2.99159 18.6471 0.135201 20.1061 3.26411C20.1407 3.36862 20.1733 3.47416 20.1973 3.58152C20.2117 3.64526 20.2197 3.67503 20.2254 3.69308C20.225 3.71279 20.2258 3.74613 20.2303 3.81794C20.2402 3.95903 20.2382 4.10099 20.2334 4.24224C20.2311 4.31721 20.225 4.39203 20.2186 4.46701C20.217 4.48689 20.2163 4.49837 20.2159 4.5062C20.2129 4.52505 20.2091 4.54817 20.2037 4.58237C20.1376 5.00231 20.0194 5.41181 19.8826 5.81124C19.6572 6.47085 19.2305 7.29118 18.7809 8.04627C17.9836 8.08087 17.1723 8.3024 16.408 8.69519C15.7637 8.21349 15.1722 7.69687 14.6231 7.04795ZM16.6638 24.7966C16.6626 24.809 16.6611 24.8247 16.6591 24.8415C16.653 24.885 16.6467 24.9292 16.6393 24.9727C16.6171 25.1085 16.5899 25.2432 16.5579 25.3771C16.5315 25.488 16.5004 25.5982 16.4652 25.7063C16.4551 25.7376 16.4439 25.7686 16.4329 25.7996C16.3976 25.8792 16.3582 25.9572 16.3151 26.032C16.3039 26.0517 16.2909 26.0706 16.2788 26.0899C16.2489 26.1257 16.2178 26.1607 16.1844 26.1937C16.184 26.1941 16.1836 26.1945 16.1832 26.1945C16.1815 26.1961 16.1796 26.1969 16.1777 26.1977C16.1699 26.2001 16.1618 26.2022 16.154 26.2041C16.131 26.1981 16.1084 26.1904 16.0859 26.1828C16.0782 26.1779 16.07 26.1744 16.0622 26.1699C16.0241 26.1475 15.9887 26.1205 15.9524 26.0943C15.9375 26.0802 15.922 26.0665 15.9077 26.0517C15.8535 25.9982 15.803 25.9408 15.754 25.8817C15.7484 25.8752 15.7433 25.868 15.7384 25.8616C15.6383 25.7109 15.5524 25.55 15.4777 25.384C15.4741 25.3768 15.4715 25.3688 15.4679 25.3615C15.4663 25.3574 15.4644 25.3527 15.4633 25.3487C15.427 25.2477 15.3956 25.1448 15.3671 25.0411C15.34 24.9413 15.317 24.84 15.2963 24.7392C15.2862 24.6897 15.2776 24.6398 15.2695 24.59C15.2308 24.2386 15.2293 23.8831 15.2606 23.5314C15.2621 23.5112 15.2644 23.4911 15.2668 23.471C15.2814 23.3721 15.2987 23.2732 15.3181 23.1752C15.3624 22.9512 15.4209 22.7309 15.4886 22.5134C15.5209 22.4105 15.5558 22.3092 15.5929 22.2079C15.5971 22.1954 15.603 22.1798 15.6093 22.1636C15.6208 22.1359 15.6326 22.1073 15.6446 22.08C15.7427 21.852 15.854 21.6304 15.9732 21.4146C16.1012 21.1818 16.2424 20.9571 16.3906 20.7384C16.3969 20.7295 16.4036 20.7203 16.4102 20.711C16.4463 20.9176 16.483 21.124 16.5149 21.3314C16.5335 21.4532 16.551 21.5754 16.5677 21.6981C16.5717 21.7266 16.5755 21.7552 16.5789 21.7837C16.5814 21.8014 16.5833 21.819 16.5848 21.8315C16.6137 22.0707 16.6374 22.3108 16.6576 22.5512C16.7194 23.2969 16.7372 24.0507 16.6638 24.7966ZM17.8612 18.1173C16.4458 18.2969 15.5532 17.4515 15.1633 16.2588C15.0593 15.9414 14.9914 15.5997 14.9583 15.246C14.7811 13.3477 15.6995 11.3428 17.3437 10.413C19.3845 9.25915 21.5237 11.0298 21.7133 13.1781C21.9211 15.5425 20.1285 17.8294 17.8612 18.1173ZM23.8079 22.7955C23.8075 22.8015 23.8075 22.802 23.8075 22.8068C23.8041 22.8233 23.8006 22.8362 23.7957 22.8627C23.7771 22.9592 23.7512 23.0537 23.7232 23.1474C23.7132 23.1791 23.7023 23.2097 23.6912 23.2407C23.6878 23.2475 23.687 23.2495 23.6828 23.2576C23.6434 23.3452 23.597 23.4297 23.5491 23.5125C23.5313 23.5439 23.4867 23.6098 23.4548 23.6576C23.3466 23.7944 23.2291 23.9226 23.1025 24.0404C23.0843 24.0573 23.076 24.0657 23.0645 24.0766C23.0577 24.0815 23.055 24.083 23.0463 24.0903C22.9699 24.1481 22.8909 24.2012 22.8104 24.2523C22.7298 24.3037 22.6465 24.3499 22.5625 24.3946C22.5362 24.4079 22.523 24.416 22.5085 24.424C22.4933 24.4296 22.4792 24.4348 22.4531 24.4449C22.2771 24.5141 22.0951 24.5644 21.9112 24.6025C21.8971 24.6053 21.8925 24.6066 21.8812 24.6089C21.8709 24.6097 21.866 24.6097 21.8504 24.6113C21.7421 24.6218 21.6338 24.6237 21.5246 24.6222C21.4714 24.6214 21.4183 24.6145 21.3651 24.6102C21.3104 24.6013 21.2283 24.5881 21.1891 24.5784C21.0978 24.5564 21.0086 24.5266 20.92 24.4948C20.9154 24.4931 20.9105 24.4911 20.9056 24.4896C20.8733 24.4735 20.841 24.4579 20.8094 24.4409C20.7376 24.4024 20.6688 24.3577 20.6012 24.3123C20.5773 24.2962 20.5617 24.2857 20.5476 24.2769C20.4211 24.1667 20.3063 24.0425 20.1992 23.9111C20.1832 23.8873 20.1664 23.864 20.1508 23.8395C20.0961 23.7555 20.0471 23.6679 19.9996 23.579C19.9502 23.4873 19.9065 23.3921 19.8647 23.2964C19.8642 23.2952 19.8642 23.2952 19.8635 23.2936C19.8391 23.2285 19.8175 23.1622 19.7958 23.0958C19.7187 22.8566 19.6628 22.6097 19.6168 22.362C19.6073 22.3085 19.5982 22.2551 19.5902 22.2016C19.5868 22.1791 19.5845 22.1695 19.5823 22.1566C19.5819 22.1517 19.5819 22.151 19.5811 22.145C19.5607 21.9665 19.5488 21.7864 19.5401 21.6066C19.5112 21.0499 19.5454 20.3716 19.5997 19.8473C19.9243 19.717 20.2424 19.5594 20.5464 19.3604C20.6433 19.2969 20.7333 19.2217 20.8264 19.1521C21.0978 19.3054 21.3657 19.4641 21.6271 19.6366C21.7913 19.7447 21.9513 19.8601 22.1097 19.978C22.1694 20.0226 22.2271 20.0685 22.2857 20.1147C22.2466 20.0857 22.4461 20.2518 22.4692 20.2727C22.709 20.485 22.9325 20.7165 23.1404 20.9626C23.1864 21.0172 23.2301 21.0735 23.2742 21.1298C23.2791 21.1375 23.281 21.1408 23.2889 21.1515C23.3768 21.279 23.4561 21.4129 23.531 21.5491C23.5721 21.6243 23.6066 21.7039 23.6427 21.7823C23.661 21.8346 23.7149 21.9741 23.729 22.0219C23.7601 22.1268 23.7829 22.2342 23.8035 22.3419C23.8073 22.3914 23.8114 22.4412 23.8133 22.4907C23.8182 22.5913 23.8144 22.6938 23.8079 22.7955ZM29.1032 20.8094C28.4347 24.0808 23.5924 18.3119 22.9742 16.8925C24.0919 17.1655 25.1916 17.5693 26.234 18.06C27.0913 18.4635 29.3718 19.4944 29.1032 20.8094ZM29.5478 14.4211C27.3607 15.1361 25.323 13.7863 23.6175 12.4354C23.5825 12.1901 23.5313 11.9475 23.4655 11.7085C25.7171 10.1749 29.3962 9.69643 30.8953 12.5492C31.4414 13.5883 30.3219 14.1678 29.5478 14.4211Z" fill="black" fill-opacity="0.19" stroke="#5F5858" stroke-width="2" mask="url(#path-1-inside-1)"/>
</svg>

