<svg width="31" height="33" viewBox="0 0 31 33" fill="none" xmlns="http://www.w3.org/2000/svg">
<g clip-path="url(#clip0)">
<path d="M16.0935 0.0360947C15.6865 0.108284 15.0726 0.332581 14.5164 0.611015C12.729 1.51078 11.508 2.93391 11.1213 4.57617C11.0501 4.86492 11.0399 4.99383 11.0433 5.51719C11.0433 6.09211 11.0705 6.33187 11.1824 6.67734C11.2027 6.73664 11.1993 6.73664 11.0705 6.65414C10.2972 6.15656 9.64256 5.80336 8.97101 5.52234C7.95689 5.09438 6.76302 4.81336 5.81674 4.77727C4.08359 4.71281 2.31652 5.51719 1.56017 6.71602C1.21422 7.26773 1.11247 7.81945 1.25832 8.36086C1.5093 9.30703 2.51663 10.2429 4.13786 11.0395C5.37921 11.6505 6.936 12.0166 8.61488 12.0888L9.03884 12.1069L8.78446 12.1945C8.26893 12.3698 7.48545 12.6844 7.16324 12.8468C5.51149 13.6692 4.37527 15.1181 4.16838 16.6727C4.07681 17.3353 4.25317 18.1706 4.58556 18.6785C5.71499 20.3981 8.94048 21.1355 11.3316 20.2254C13.1733 19.5216 14.7911 18.0649 15.5373 16.4407L15.6289 16.237L15.656 16.4149C15.6832 16.6186 15.6526 17.6782 15.6017 18.1784C15.4898 19.2792 15.327 19.9856 14.6724 22.1977C14.2688 23.5615 14.0857 24.3891 13.95 25.4719C13.9025 25.8586 13.8889 26.2041 13.8923 27.2895C13.8923 28.6791 13.9093 28.9755 14.0755 30.1898C14.1094 30.4528 14.1501 30.7364 14.1603 30.8215C14.1806 30.9968 14.1976 31.02 13.9568 30.5121C12.0981 26.5624 8.98457 23.9147 4.91455 22.819C3.52396 22.4452 1.83151 22.2234 0.366302 22.2234H0V22.6024C0 24.5515 0.698687 26.1757 2.12319 27.5344C2.63534 28.0242 3.59179 28.6971 4.4058 29.1431C5.86422 29.9449 7.30569 30.4941 10.9043 31.6207C12.6883 32.1802 13.2377 32.3606 13.9364 32.6159L14.4893 32.8195L14.4689 32.9098L14.4452 33.0026L14.5741 32.951C14.6894 32.9072 14.7165 32.9072 14.7877 32.9381C14.9098 32.9871 14.9234 32.9819 14.9031 32.902C14.8827 32.8298 14.8861 32.8298 16.6396 32.175C18.505 31.4763 19.5158 31.0793 20.2314 30.7622C22.9142 29.5762 24.549 28.3929 25.5021 26.9491C25.9396 26.2814 26.1906 25.6523 26.3432 24.8273C26.4144 24.4303 26.4246 23.3836 26.3602 22.9582C26.2856 22.4761 26.0956 21.6846 25.9939 21.4165C25.9701 21.3572 25.9328 21.3598 25.2409 21.4655C22.2596 21.9192 20.1263 22.6746 18.5729 23.8219C17.2264 24.817 16.3954 25.9798 15.8086 27.6891C15.6051 28.282 15.4593 28.8492 15.1405 30.2904C14.9845 31.0071 14.8488 31.5949 14.8454 31.6001C14.8081 31.6284 14.7911 30.0197 14.8217 29.1457C14.9065 26.5856 15.1676 24.6546 15.7679 22.1719C16.3445 19.7897 16.409 19.4906 16.5039 18.743C16.6023 17.9412 16.5345 16.7552 16.3547 16.1442C16.3344 16.0849 16.3242 16.0359 16.331 16.0359C16.3377 16.0359 16.4666 16.17 16.6226 16.3376C17.05 16.7939 17.4672 17.1703 17.9895 17.5777C19.1868 18.5058 20.3094 19.0395 21.5982 19.2895C21.9917 19.3669 22.0731 19.372 22.5547 19.3746C22.86 19.3746 23.1652 19.3591 23.2839 19.3411C24.0165 19.2199 24.7356 18.9466 25.3189 18.5651C26.4857 17.802 27.337 16.4587 27.337 15.3914C27.337 14.1694 26.2957 12.9912 24.2811 11.9316L23.9758 11.7691L24.2573 11.7279C24.5558 11.6815 25.3562 11.5191 26.2075 11.3283C27.8695 10.9596 29.0091 10.5239 29.8434 9.93609C30.5998 9.40758 31.061 8.52328 30.9864 7.74727C30.9152 6.99445 30.4845 6.40922 29.5924 5.85234C28.8056 5.3625 27.917 5.06086 26.7604 4.8907C26.4144 4.84172 26.2618 4.83398 25.4207 4.83398C24.5897 4.83398 24.4167 4.84172 24.0335 4.89328C22.531 5.0918 21.276 5.48883 20.2111 6.10242C20.0075 6.22102 19.8414 6.31125 19.8414 6.30867C19.8414 6.3061 19.8922 6.20813 19.9567 6.09469C20.2212 5.61773 20.4688 4.92422 20.557 4.42149C20.6248 4.02703 20.54 3.42891 20.3467 2.93133C20.15 2.42602 19.7464 1.83305 19.3055 1.39477C18.8849 0.974533 18.1659 0.464066 17.6876 0.244923C17.2433 0.0438309 16.565 -0.0464058 16.0935 0.0360947Z" fill="black"/>
</g>
<defs>
<clipPath id="clip0">
<rect width="31" height="33" fill="white"/>
</clipPath>
</defs>
</svg>
