<svg width="30" height="30" viewBox="0 0 30 30" fill="none" xmlns="http://www.w3.org/2000/svg">
<path d="M14.1341 0.0117495C12.3678 0.114891 10.5359 0.557928 8.92681 1.27288C5.05655 2.99112 2.09873 6.23772 0.764083 10.2391C0.395822 11.3385 0.175334 12.3793 0.0439802 13.6381C-0.0146601 14.1913 -0.0146601 15.8556 0.0439802 16.3924C0.309034 18.8303 1.00568 20.9025 2.23478 22.8973C4.2567 26.1721 7.50771 28.5654 11.2349 29.5195C12.5508 29.857 13.6814 30 15.0137 30C17.0848 30 19.0223 29.6015 20.9316 28.7834C24.1334 27.4121 26.7816 24.9367 28.3696 21.8308C29.1389 20.3282 29.6573 18.6662 29.8825 16.9808C29.988 16.2096 30.0021 15.947 29.9998 14.9508C29.9998 13.9405 29.981 13.6521 29.8614 12.8223C29.3923 9.58746 27.823 6.51667 25.4681 4.23584C22.8902 1.73467 19.5688 0.264914 15.9449 0.0187818C15.6212 -0.00231518 14.4578 -0.00700341 14.1341 0.0117495ZM15.8112 2.92548C16.9558 3.00753 18.1544 3.26304 19.1865 3.64513C21.5298 4.51245 23.5306 6.05956 24.9403 8.08957C26.1131 9.78202 26.8215 11.6878 27.0513 13.7787C27.11 14.3155 27.11 15.6681 27.0513 16.1932C26.8825 17.7051 26.5142 18.9944 25.8762 20.3071C24.314 23.5185 21.4078 25.8673 17.9128 26.7417C16.923 26.9902 16.1396 27.0816 15.0137 27.0816C14.2021 27.0816 13.93 27.0652 13.3014 26.9737C10.7071 26.601 8.30053 25.4055 6.46626 23.5795C4.69767 21.8167 3.50376 19.5312 3.07451 17.0839C2.94081 16.3127 2.91266 15.9681 2.91266 15.0328C2.91266 14.0811 2.93612 13.7694 3.06278 13.0099C3.58116 9.93907 5.22309 7.22224 7.68363 5.35867C9.5437 3.95221 11.8166 3.09426 14.1153 2.92783C14.5023 2.8997 15.4312 2.8997 15.8112 2.92548Z" fill="#E36363"/>
<path d="M8.27003 13.842C8.25126 13.8491 8.21608 13.8701 8.19497 13.8912C8.15509 13.9241 8.15275 14.0061 8.15275 14.9977C8.15275 16.0572 8.15275 16.0689 8.20201 16.1135C8.25126 16.158 8.39669 16.158 15.0019 16.158C21.6072 16.158 21.7526 16.158 21.8019 16.1135C21.8511 16.0689 21.8511 16.0572 21.8511 14.9977C21.8511 13.9381 21.8511 13.9264 21.8019 13.8819C21.7526 13.8373 21.6048 13.8373 15.0277 13.8326C11.3311 13.8303 8.28879 13.835 8.27003 13.842Z" fill="#E36363"/>
</svg>