<svg width="25" height="32" viewBox="0 0 25 32" fill="none" xmlns="http://www.w3.org/2000/svg">
<path d="M12.3297 0.0575008C11.3986 0.512501 9.03583 3.085 7.11438 5.7375C6.61607 6.425 5.93195 7.4775 5.58144 8.1C5.16125 8.8425 4.80652 9.635 4.65872 10.16C4.57004 10.47 4.51092 10.88 4.53203 11.04C4.5447 11.1375 4.55315 11.15 4.64394 11.195C4.8572 11.3025 5.14014 11.3375 5.49065 11.3C5.63634 11.285 5.87916 11.2675 6.02907 11.26C6.33313 11.245 6.42181 11.2725 6.47882 11.4C6.54216 11.545 6.46193 11.8775 6.25078 12.325C5.98262 12.9 5.52654 13.4675 4.39267 14.65C3.3137 15.775 3.08566 16.02 2.71615 16.45C2.00458 17.2775 1.68997 17.825 1.68997 18.235C1.68997 18.41 1.78288 18.595 1.93279 18.7125C2.22207 18.9425 2.54935 19 3.23136 18.94C3.48051 18.9175 3.74867 18.9 3.8268 18.9C4.43279 18.9 4.51514 19.2825 4.11396 20.2375C3.75078 21.1 3.27781 21.745 1.91168 23.2375C0.929839 24.31 0.444197 24.9125 0.12114 25.455L0.0197891 25.625L0.00712017 25.905C-0.032998 26.82 0.306951 27.325 1.1072 27.53C1.29935 27.58 1.37959 27.585 1.95391 27.5875C2.34876 27.5875 2.67393 27.575 2.81962 27.555C3.31793 27.4825 3.74022 27.4175 4.58271 27.275C5.65112 27.095 6.07341 27.0375 6.61607 26.9975C7.1186 26.9625 7.59791 26.995 7.95264 27.0875C8.38338 27.2025 8.73389 27.4675 8.90703 27.81L8.97882 27.9475L8.99782 28.9675C9.01682 30.07 9.03372 30.3325 9.11395 30.695C9.20475 31.11 9.35255 31.4275 9.60382 31.7525L9.73262 31.9175L10.2035 31.9525C10.8221 31.9975 13.1237 32 14.3483 31.9525L15.2563 31.92L15.3576 31.8025C15.6342 31.49 15.8411 31.0275 15.9193 30.55C15.9742 30.2225 15.9868 29.98 16.0037 28.9925L16.0227 27.95L16.0924 27.81C16.4112 27.185 17.1819 26.9125 18.3855 26.9975C18.9281 27.0375 19.3504 27.095 20.4188 27.275C21.2613 27.4175 21.6836 27.4825 22.1819 27.555C22.3276 27.575 22.6528 27.5875 23.0476 27.5875C23.622 27.585 23.7022 27.58 23.8943 27.53C24.6946 27.325 25.0345 26.82 24.9944 25.905L24.9818 25.625L24.8804 25.455C24.5574 24.9125 24.0717 24.31 23.0899 23.2375C21.7237 21.745 21.2508 21.1 20.8876 20.2375C20.4864 19.2825 20.5688 18.9 21.1748 18.9C21.2529 18.9 21.521 18.9175 21.7702 18.94C22.4522 19 22.7795 18.9425 23.0688 18.7125C23.1659 18.635 23.2102 18.58 23.2546 18.475C23.3095 18.3525 23.3137 18.32 23.3031 18.165C23.282 17.8325 23.0519 17.3925 22.6106 16.835C22.2052 16.325 21.9264 16.0225 20.5878 14.625C20.0029 14.015 19.3673 13.29 19.1393 12.9725C18.9345 12.685 18.7824 12.4125 18.6621 12.11C18.4826 11.6625 18.4615 11.4125 18.5945 11.3075C18.6748 11.245 18.9028 11.24 19.3631 11.2875C19.8825 11.34 20.119 11.3175 20.3597 11.195C20.4611 11.145 20.4611 11.1425 20.4611 11.0275C20.4611 10.965 20.4421 10.81 20.421 10.6875C20.2373 9.67 19.5489 8.235 18.4129 6.5025C16.559 3.675 13.717 0.4625 12.7014 0.0499992C12.5451 -0.0149994 12.4754 -0.0125008 12.3297 0.0575008Z" fill="black"/>
</svg>
